<?xml version="1.0" encoding="iso-8859-1"?>
<!-- Generator: Adobe Illustrator 19.0.0, SVG Export Plug-In . SVG Version: 6.00 Build 0)  -->
<svg version="1.1" id="Capa_1" xmlns="http://www.w3.org/2000/svg" xmlns:xlink="http://www.w3.org/1999/xlink" x="0px" y="0px"
	 viewBox="0 0 512 512" style="enable-background:new 0 0 512 512;" xml:space="preserve">
<rect x="17.655" style="fill:#B02721;" width="476.69" height="35.31"/>
<rect x="35.31" y="35.31" style="fill:#DD352E;" width="441.379" height="476.69"/>
<rect x="79.448" y="70.621" style="fill:#C6E2F7;" width="88.276" height="105.931"/>
<path style="fill:#FFFFFF;" d="M123.586,141.241c-4.873,0-8.828-3.946-8.828-8.828v-26.483c0-4.882,3.955-8.828,8.828-8.828
	s8.828,3.946,8.828,8.828v26.483C132.414,137.295,128.459,141.241,123.586,141.241z"/>
<g>
	<rect x="344.276" y="70.621" style="fill:#C6E2F7;" width="88.276" height="105.931"/>
	<rect x="211.862" y="70.621" style="fill:#C6E2F7;" width="88.276" height="105.931"/>
	<rect x="79.448" y="211.862" style="fill:#C6E2F7;" width="88.276" height="105.931"/>
	<rect x="344.276" y="211.862" style="fill:#C6E2F7;" width="88.276" height="105.931"/>
	<rect x="211.862" y="211.862" style="fill:#C6E2F7;" width="88.276" height="105.931"/>
</g>
<rect x="176.552" y="353.103" style="fill:#EBBA16;" width="158.897" height="158.897"/>
<g>
	<path style="fill:#C69817;" d="M194.207,397.241h-17.655c-4.873,0-8.828-3.946-8.828-8.828c0-4.882,3.955-8.828,8.828-8.828h17.655
		c4.873,0,8.828,3.946,8.828,8.828C203.034,393.295,199.08,397.241,194.207,397.241z"/>
	<path style="fill:#C69817;" d="M194.207,485.517h-17.655c-4.873,0-8.828-3.946-8.828-8.828c0-4.882,3.955-8.828,8.828-8.828h17.655
		c4.873,0,8.828,3.946,8.828,8.828C203.034,481.571,199.08,485.517,194.207,485.517z"/>
	<path style="fill:#C69817;" d="M335.448,397.241h-17.655c-4.873,0-8.828-3.946-8.828-8.828c0-4.882,3.955-8.828,8.828-8.828h17.655
		c4.873,0,8.828,3.946,8.828,8.828C344.276,393.295,340.321,397.241,335.448,397.241z"/>
	<path style="fill:#C69817;" d="M335.448,485.517h-17.655c-4.873,0-8.828-3.946-8.828-8.828c0-4.882,3.955-8.828,8.828-8.828h17.655
		c4.873,0,8.828,3.946,8.828,8.828C344.276,481.571,340.321,485.517,335.448,485.517z"/>
</g>
<g>
	<path style="fill:#FFFFFF;" d="M220.69,450.207c-4.873,0-8.828-3.946-8.828-8.828v-17.655c0-4.882,3.955-8.828,8.828-8.828
		c4.873,0,8.828,3.946,8.828,8.828v17.655C229.517,446.261,225.562,450.207,220.69,450.207z"/>
	<path style="fill:#FFFFFF;" d="M291.31,450.207c-4.873,0-8.828-3.946-8.828-8.828v-17.655c0-4.882,3.955-8.828,8.828-8.828
		c4.873,0,8.828,3.946,8.828,8.828v17.655C300.138,446.261,296.183,450.207,291.31,450.207z"/>
</g>
<path style="fill:#23A24D;" d="M105.931,476.69c-1.854,0-3.681-0.097-5.482-0.291c-14.583-1.545-27.277-10.037-33.907-22.713
	c-6.409-12.253-6.294-26.765,0.309-38.815l31.338-57.176c3.098-5.658,12.385-5.658,15.484,0l31.338,57.176
	c6.603,12.05,6.718,26.571,0.309,38.815c-6.63,12.685-19.324,21.169-33.942,22.713C109.612,476.593,107.785,476.69,105.931,476.69z"
	/>
<path style="fill:#6C342A;" d="M105.931,512c-4.873,0-8.828-3.946-8.828-8.828v-61.793c0-4.882,3.955-8.828,8.828-8.828
	c4.873,0,8.828,3.946,8.828,8.828v61.793C114.759,508.054,110.804,512,105.931,512z"/>
<path style="fill:#23A24D;" d="M406.069,476.69c-1.854,0-3.681-0.097-5.482-0.291c-14.583-1.545-27.277-10.037-33.907-22.713
	c-6.409-12.253-6.294-26.765,0.309-38.815l31.338-57.176c3.099-5.658,12.385-5.658,15.484,0l31.338,57.176
	c6.603,12.05,6.718,26.571,0.309,38.815c-6.63,12.685-19.324,21.169-33.942,22.713C409.75,476.593,407.923,476.69,406.069,476.69z"
	/>
<path style="fill:#6C342A;" d="M406.069,512c-4.873,0-8.828-3.946-8.828-8.828v-61.793c0-4.882,3.955-8.828,8.828-8.828
	s8.828,3.946,8.828,8.828v61.793C414.897,508.054,410.942,512,406.069,512z"/>
<rect x="79.448" y="70.621" style="fill:#556080;" width="88.276" height="35.31"/>
<path style="fill:#FFFFFF;" d="M256,141.241c-4.873,0-8.828-3.946-8.828-8.828v-26.483c0-4.882,3.955-8.828,8.828-8.828
	s8.828,3.946,8.828,8.828v26.483C264.828,137.295,260.873,141.241,256,141.241z"/>
<rect x="211.862" y="70.621" style="fill:#556080;" width="88.276" height="35.31"/>
<path style="fill:#FFFFFF;" d="M388.414,141.241c-4.873,0-8.828-3.946-8.828-8.828v-26.483c0-4.882,3.955-8.828,8.828-8.828
	s8.828,3.946,8.828,8.828v26.483C397.241,137.295,393.287,141.241,388.414,141.241z"/>
<rect x="344.276" y="70.621" style="fill:#556080;" width="88.276" height="35.31"/>
<path style="fill:#FFFFFF;" d="M123.586,282.483c-4.873,0-8.828-3.946-8.828-8.828v-26.483c0-4.882,3.955-8.828,8.828-8.828
	s8.828,3.946,8.828,8.828v26.483C132.414,278.537,128.459,282.483,123.586,282.483z"/>
<rect x="79.448" y="211.862" style="fill:#556080;" width="88.276" height="35.31"/>
<path style="fill:#FFFFFF;" d="M256,282.483c-4.873,0-8.828-3.946-8.828-8.828v-26.483c0-4.882,3.955-8.828,8.828-8.828
	s8.828,3.946,8.828,8.828v26.483C264.828,278.537,260.873,282.483,256,282.483z"/>
<rect x="211.862" y="211.862" style="fill:#556080;" width="88.276" height="35.31"/>
<path style="fill:#FFFFFF;" d="M388.414,282.483c-4.873,0-8.828-3.946-8.828-8.828v-26.483c0-4.882,3.955-8.828,8.828-8.828
	s8.828,3.946,8.828,8.828v26.483C397.241,278.537,393.287,282.483,388.414,282.483z"/>
<rect x="344.276" y="211.862" style="fill:#556080;" width="88.276" height="35.31"/>
<rect x="247.172" y="353.103" style="fill:#C69817;" width="17.655" height="158.897"/>
<g>
</g>
<g>
</g>
<g>
</g>
<g>
</g>
<g>
</g>
<g>
</g>
<g>
</g>
<g>
</g>
<g>
</g>
<g>
</g>
<g>
</g>
<g>
</g>
<g>
</g>
<g>
</g>
<g>
</g>
</svg>
