<?xml version="1.0" encoding="iso-8859-1"?>
<!-- Generator: Adobe Illustrator 19.0.0, SVG Export Plug-In . SVG Version: 6.00 Build 0)  -->
<svg version="1.1" id="Capa_1" xmlns="http://www.w3.org/2000/svg" xmlns:xlink="http://www.w3.org/1999/xlink" x="0px" y="0px"
	 viewBox="0 0 511.996 511.996" style="enable-background:new 0 0 511.996 511.996;" xml:space="preserve">
<circle style="fill:#FF7260;" cx="383.994" cy="405.337" r="21.333"/>
<circle style="fill:#FFE451;" cx="437.327" cy="352.003" r="21.333"/>
<circle style="fill:#31E8BB;" cx="362.661" cy="330.67" r="21.333"/>
<path style="fill:#AAC4DA;" d="M170.661,352.003v21.333c0,5.891-4.776,10.667-10.667,10.667h-21.333v21.333
	c0,5.891-4.776,10.667-10.667,10.667h-21.333c-5.891,0-10.667-4.776-10.667-10.667v-21.333H74.661
	c-5.891,0-10.667-4.776-10.667-10.667v-21.333c0-5.891,4.776-10.667,10.667-10.667h21.333v-21.333
	c0-5.891,4.776-10.667,10.667-10.667h21.333c5.891,0,10.667,4.776,10.667,10.667v21.333h21.333
	C165.885,341.337,170.661,346.112,170.661,352.003z"/>
<path style="fill:#F2F2F2;" d="M287.994,234.67v21.333h-64V234.67v-21.333h32h32V234.67z"/>
<path style="fill:#D9EEF7;" d="M394.661,256.003c58.91,0,106.667,47.756,106.667,106.667c0,58.91-47.756,106.667-106.667,106.667
	S287.994,421.58,287.994,362.67h-64c0,58.91-47.756,106.667-106.667,106.667S10.661,421.58,10.661,362.67
	c0-58.91,47.756-106.667,106.667-106.667H394.661z M458.661,352.003c0-11.782-9.551-21.333-21.333-21.333
	c-11.782,0-21.333,9.551-21.333,21.333s9.551,21.333,21.333,21.333C449.095,373.301,458.626,363.771,458.661,352.003z
	 M405.327,405.337c0-11.782-9.551-21.333-21.333-21.333c-11.782,0-21.333,9.551-21.333,21.333s9.551,21.333,21.333,21.333
	C395.762,426.635,405.292,417.104,405.327,405.337z M383.994,330.67c0-11.782-9.551-21.333-21.333-21.333
	s-21.333,9.551-21.333,21.333c0,11.782,9.551,21.333,21.333,21.333C374.428,351.968,383.959,342.437,383.994,330.67z
	 M170.661,373.337v-21.333c0-5.891-4.776-10.667-10.667-10.667h-21.333v-21.333c0-5.891-4.776-10.667-10.667-10.667h-21.333
	c-5.891,0-10.667,4.776-10.667,10.667v21.333H74.661c-5.891,0-10.667,4.776-10.667,10.667v21.333
	c0,5.891,4.776,10.667,10.667,10.667h21.333v21.333c0,5.891,4.776,10.667,10.667,10.667h21.333c5.891,0,10.667-4.776,10.667-10.667
	v-21.333h21.333C165.885,384.003,170.661,379.228,170.661,373.337z"/>
<g>
	<path style="fill:#4C5B66;" d="M394.661,245.337H117.327C52.526,245.34-0.003,297.874,0,362.676s52.538,117.331,117.339,117.327
		c60.666-0.003,111.327-46.252,116.842-106.667h43.627c5.891,64.533,62.981,112.072,127.514,106.181
		c64.533-5.891,112.072-62.981,106.181-127.514C505.987,291.588,455.327,245.34,394.661,245.337z M394.661,458.67
		c-52.993-0.065-95.935-43.007-96-96c0-5.891-4.776-10.667-10.667-10.667h-64c-5.891,0-10.667,4.776-10.667,10.667
		c0,53.019-42.981,96-96,96s-96-42.981-96-96s42.981-96,96-96h277.333c53.019,0,96,42.981,96,96S447.68,458.67,394.661,458.67z"/>
	<path style="fill:#4C5B66;" d="M373.327,74.67v32c0.718,11.064-7.668,20.615-18.732,21.333c-0.866,0.056-1.735,0.056-2.602,0h-64
		c-22.888-0.676-41.991,17.331-42.667,40.22c-0.024,0.815-0.024,1.631,0,2.447v32h-21.333c-5.891,0-10.667,4.776-10.667,10.667
		v21.333h21.333v-10.667h42.667v10.667h21.333v-21.333c0-5.891-4.776-10.667-10.667-10.667h-21.333v-32
		c-0.718-11.064,7.668-20.615,18.732-21.333c0.866-0.056,1.735-0.056,2.602,0h64c22.888,0.676,41.991-17.331,42.667-40.22
		c0.024-0.815,0.024-1.631,0-2.447v-32c0.676-22.888-17.331-41.991-40.22-42.667c-0.815-0.024-1.631-0.024-2.447,0H202.661v21.333
		h149.333c11.064-0.718,20.615,7.668,21.333,18.732C373.384,72.934,373.384,73.804,373.327,74.67z"/>
	<path style="fill:#4C5B66;" d="M159.994,330.67h-10.667v-10.667c0-11.782-9.551-21.333-21.333-21.333h-21.333
		c-11.782,0-21.333,9.551-21.333,21.333v10.667H74.661c-11.782,0-21.333,9.551-21.333,21.333v21.333
		c0,11.782,9.551,21.333,21.333,21.333h10.667v10.667c0,11.782,9.551,21.333,21.333,21.333h21.333
		c11.782,0,21.333-9.551,21.333-21.333V394.67h10.667c11.782,0,21.333-9.551,21.333-21.333v-21.333
		C181.327,340.221,171.776,330.67,159.994,330.67z M159.994,373.337h-21.333c-5.891,0-10.667,4.776-10.667,10.667v21.333h-21.333
		v-21.333c0-5.891-4.776-10.667-10.667-10.667H74.661v-21.333h21.333c5.891,0,10.667-4.776,10.667-10.667v-21.333h21.333v21.333
		c0,5.891,4.776,10.667,10.667,10.667h21.333V373.337z"/>
	<path style="fill:#4C5B66;" d="M383.994,373.337c-17.673,0-32,14.327-32,32s14.327,32,32,32s32-14.327,32-32
		S401.667,373.337,383.994,373.337z M383.994,416.003c-5.891,0-10.667-4.776-10.667-10.667s4.776-10.667,10.667-10.667
		c5.891,0,10.667,4.776,10.667,10.667S389.885,416.003,383.994,416.003z"/>
	<path style="fill:#4C5B66;" d="M437.327,320.003c-17.673,0-32,14.327-32,32s14.327,32,32,32s32-14.327,32-32
		S455.001,320.003,437.327,320.003z M437.327,362.67c-5.891,0-10.667-4.776-10.667-10.667c0-5.891,4.776-10.667,10.667-10.667
		c5.891,0,10.667,4.776,10.667,10.667C447.994,357.894,443.219,362.67,437.327,362.67z"/>
	<path style="fill:#4C5B66;" d="M394.661,330.67c0-17.673-14.327-32-32-32s-32,14.327-32,32c0,17.673,14.327,32,32,32
		S394.661,348.343,394.661,330.67z M351.994,330.67c0-5.891,4.776-10.667,10.667-10.667s10.667,4.776,10.667,10.667
		c0,5.891-4.776,10.667-10.667,10.667S351.994,336.561,351.994,330.67z"/>
	<path style="fill:#4C5B66;" d="M202.661,288.003h106.667v21.333H202.661V288.003z"/>
</g>
<g>
</g>
<g>
</g>
<g>
</g>
<g>
</g>
<g>
</g>
<g>
</g>
<g>
</g>
<g>
</g>
<g>
</g>
<g>
</g>
<g>
</g>
<g>
</g>
<g>
</g>
<g>
</g>
<g>
</g>
</svg>
