<?xml version="1.0" encoding="iso-8859-1"?>
<!-- Generator: Adobe Illustrator 19.0.0, SVG Export Plug-In . SVG Version: 6.00 Build 0)  -->
<svg version="1.1" id="Capa_1" xmlns="http://www.w3.org/2000/svg" xmlns:xlink="http://www.w3.org/1999/xlink" x="0px" y="0px"
	 viewBox="0 0 456 456" style="enable-background:new 0 0 456 456;" xml:space="preserve">
<path style="fill:#B3B3B3;" d="M236,232h-16v-16c0-17.673-14.327-32-32-32h-60c-15.464,0-28-12.536-28-28s12.536-28,28-28h232
	c6.627,0,12-5.373,12-12s-5.373-12-12-12h-84c-17.673,0-32-14.327-32-32c0-8.837-7.163-16-16-16h-48V40h48c17.673,0,32,14.327,32,32
	c0,8.837,7.163,16,16,16h84c15.464,0,28,12.536,28,28s-12.536,28-28,28H128c-6.627,0-12,5.373-12,12s5.373,12,12,12h60
	c26.499,0.026,47.974,21.501,48,48V232z"/>
<rect x="12" y="216" style="fill:#29ABE2;" width="432" height="240"/>
<g>
	<rect x="52" y="320" style="fill:#FBB03B;" width="32" height="32"/>
	<rect x="116" y="320" style="fill:#FBB03B;" width="32" height="32"/>
	<rect x="180" y="320" style="fill:#FBB03B;" width="32" height="32"/>
	<rect x="244" y="320" style="fill:#FBB03B;" width="32" height="32"/>
	<rect x="308" y="320" style="fill:#FBB03B;" width="32" height="32"/>
	<rect x="372" y="320" style="fill:#FBB03B;" width="32" height="32"/>
	<rect x="52" y="256" style="fill:#FBB03B;" width="32" height="32"/>
	<rect x="116" y="256" style="fill:#FBB03B;" width="32" height="32"/>
	<rect x="180" y="256" style="fill:#FBB03B;" width="32" height="32"/>
	<rect x="244" y="256" style="fill:#FBB03B;" width="32" height="32"/>
	<rect x="308" y="256" style="fill:#FBB03B;" width="32" height="32"/>
	<rect x="372" y="256" style="fill:#FBB03B;" width="32" height="32"/>
	<rect x="52" y="384" style="fill:#FBB03B;" width="32" height="32"/>
	<rect x="116" y="384" style="fill:#FBB03B;" width="224" height="32"/>
	<rect x="372" y="384" style="fill:#FBB03B;" width="32" height="32"/>
</g>
<rect x="12" y="16" style="fill:#B3B3B3;" width="72" height="64"/>
<polygon style="fill:#29ABE2;" points="76,0 76,96 196,88 196,8 "/>
<rect x="36" y="40" style="fill:#808080;" width="16" height="16"/>
<polygon style="fill:#0071BC;" points="196,8 164,5.864 164,90.136 196,88 "/>
<g>
</g>
<g>
</g>
<g>
</g>
<g>
</g>
<g>
</g>
<g>
</g>
<g>
</g>
<g>
</g>
<g>
</g>
<g>
</g>
<g>
</g>
<g>
</g>
<g>
</g>
<g>
</g>
<g>
</g>
</svg>
