<?xml version="1.0" encoding="iso-8859-1"?>
<!-- Generator: Adobe Illustrator 19.0.0, SVG Export Plug-In . SVG Version: 6.00 Build 0)  -->
<svg version="1.1" id="Layer_1" xmlns="http://www.w3.org/2000/svg" xmlns:xlink="http://www.w3.org/1999/xlink" x="0px" y="0px"
	 viewBox="0 0 512 512" style="enable-background:new 0 0 512 512;" xml:space="preserve">
<polygon style="fill:#FFFFFF;" points="472.36,275.922 424.547,228.109 320.952,228.109 257.2,28.887 225.325,28.887 
	225.325,228.109 97.822,228.109 42.04,132.482 10.164,132.482 10.164,259.985 73.916,315.767 225.325,315.767 225.325,483.113 
	257.2,483.113 310.751,315.767 440.485,315.767 "/>
<g>
	<rect x="233.498" y="291.859" style="fill:#F9B233;" width="15.527" height="183.283"/>
	<rect x="233.498" y="36.855" style="fill:#F9B233;" width="15.527" height="183.283"/>
</g>
<g>
	<polygon style="fill:#E30613;" points="225.33,339.673 97.822,339.673 73.916,315.767 225.325,315.767 	"/>
	<polygon style="fill:#E30613;" points="305.014,315.767 440.485,315.767 472.36,275.922 496.267,283.891 504.236,307.798 
		504.236,323.735 480.33,339.673 297.045,339.673 	"/>
	<polygon style="fill:#E30613;" points="89.854,116.544 65.947,116.544 57.977,148.42 73.916,188.265 	"/>
	<polygon style="fill:#E30613;" points="65.947,228.109 34.071,228.109 10.164,315.767 34.071,315.767 	"/>
</g>
<g>
	<rect x="105.792" y="260.194" style="fill:#1D1D1B;" width="15.938" height="15.527"/>
	<rect x="137.664" y="260.194" style="fill:#1D1D1B;" width="15.937" height="15.527"/>
	<rect x="169.546" y="260.194" style="fill:#1D1D1B;" width="15.937" height="15.527"/>
	<rect x="201.418" y="260.194" style="fill:#1D1D1B;" width="15.937" height="15.527"/>
	<rect x="233.29" y="260.194" style="fill:#1D1D1B;" width="15.937" height="15.527"/>
	<rect x="265.173" y="260.194" style="fill:#1D1D1B;" width="15.938" height="15.527"/>
	<rect x="297.045" y="260.194" style="fill:#1D1D1B;" width="15.937" height="15.527"/>
	<rect x="328.917" y="260.194" style="fill:#1D1D1B;" width="15.937" height="15.527"/>
	<rect x="360.8" y="260.194" style="fill:#1D1D1B;" width="15.937" height="15.527"/>
	<polygon style="fill:#1D1D1B;" points="233.089,116.339 249.232,116.339 249.232,100.812 233.089,100.812 233.089,84.464 
		249.232,84.464 249.232,68.936 233.089,68.936 233.089,36.65 251.448,36.65 305.556,214.431 320.409,209.911 262.952,21.123 
		217.561,21.123 217.561,212.171 233.089,212.171 	"/>
	<path style="fill:#1D1D1B;" d="M475.716,268.299l-36.368-36.368c-7.472-7.472-17.406-11.586-27.972-11.586H102.282l-17.913-30.707
		l0.083,0.016l14.704-80.873H60.017l-7.269,26.652l-6.25-10.714H2.4v138.7l11.213,10.193L0,323.53h39.508l7.209-19.824
		l48.103,43.731h122.74v143.44h45.391l43.656-143.44h169.379c19.858,0,36.014-16.155,36.014-36.013v-3.626
		C512,287.07,496.01,270.008,475.716,268.299z M71.877,124.307h8.675l-8.149,44.817l-8.687-14.893L71.877,124.307z M20.329,308.003
		l19.672-72.131h14.862l-26.23,72.131H20.329z M100.823,331.91l-9.218-8.379H217.56v8.379H100.823z M251.448,475.35h-18.359v-32.286
		h16.143v-15.527h-16.143v-16.348h16.143v-15.527h-16.143V291.86h-15.527v16.143H74.526l-22.074-20.067l24.58-67.591h-48.89
		L18.2,256.797l-0.271-0.247V140.245h19.652l55.783,95.627h318.013c6.419,0,12.454,2.5,16.993,7.039l17.279,17.279h-29.071v15.527
		h44.598l0.782,0.782l-25.204,31.505H318.609l1.8-5.914l-14.854-4.52L251.448,475.35z M496.473,311.424
		c0,11.295-9.19,20.486-20.487,20.486H311.333l2.551-8.379h130.332l31.667-39.585c11.632,1.71,20.589,11.753,20.589,23.852v3.627
		H496.473z"/>
</g>
<g>
</g>
<g>
</g>
<g>
</g>
<g>
</g>
<g>
</g>
<g>
</g>
<g>
</g>
<g>
</g>
<g>
</g>
<g>
</g>
<g>
</g>
<g>
</g>
<g>
</g>
<g>
</g>
<g>
</g>
</svg>
