<?xml version="1.0" encoding="iso-8859-1"?>
<!-- Generator: Adobe Illustrator 19.0.0, SVG Export Plug-In . SVG Version: 6.00 Build 0)  -->
<svg version="1.1" id="Layer_1" xmlns="http://www.w3.org/2000/svg" xmlns:xlink="http://www.w3.org/1999/xlink" x="0px" y="0px"
	 viewBox="0 0 512 512" style="enable-background:new 0 0 512 512;" xml:space="preserve">
<path style="fill:#F28838;" d="M326.751,265.055h11.474h13.758h11.475h70.701h11.475h13.758h11.475c3.6,0,6.518,2.92,6.518,6.519
	v87.999c0,3.598-2.917,6.516-6.518,6.516H459.39h-13.758h-11.475h-70.701h-11.475h-13.758h-11.474c-3.6,0-6.518-2.917-6.518-6.516
	v-87.999C320.232,267.974,323.151,265.055,326.751,265.055z"/>
<path style="fill:#EF711D;" d="M342.217,359.572v-87.999c0-3.599,2.917-6.519,6.518-6.519h-10.512H326.75
	c-3.6,0-6.518,2.92-6.518,6.519v87.999c0,3.598,2.917,6.516,6.518,6.516h11.474h10.512
	C345.135,366.088,342.217,363.171,342.217,359.572z"/>
<path style="fill:#EA6428;" d="M326.751,265.055h11.474h13.758h11.475h70.701h11.475h13.758h11.475c3.6,0,6.518,2.92,6.518,6.519
	v29.013H320.232v-29.013C320.232,267.974,323.151,265.055,326.751,265.055z"/>
<path style="fill:#DD4D14;" d="M342.217,271.574c0-3.599,2.917-6.519,6.518-6.519h-10.512H326.75c-3.6,0-6.518,2.92-6.518,6.519
	v29.013h21.984v-29.013H342.217z"/>
<path style="fill:#FCA468;" d="M420.697,340.398h-49.37c-4.554,0-8.244-3.69-8.244-8.244s3.69-8.244,8.244-8.244h49.37
	c4.554,0,8.244,3.69,8.244,8.244S425.25,340.398,420.697,340.398z"/>
<path style="fill:#4BAF78;" d="M126.363,238.277c0-6.368,5.163-11.531,11.531-11.531h170.806c6.368,0,11.533,5.163,11.533,11.531
	v116.28c0,6.37-5.165,11.531-11.533,11.531H137.894c-6.368,0-11.531-5.161-11.531-11.531V238.277z"/>
<path style="fill:#FFB92E;" d="M308.699,87.403H137.894c-6.368,0-11.531,5.163-11.531,11.531v116.28
	c0,6.37,5.163,11.531,11.531,11.531h170.806c6.368,0,11.533-5.161,11.533-11.531v-64.124v-28.576v-23.58
	C320.232,92.566,315.067,87.403,308.699,87.403z"/>
<g>
	<path style="fill:#7C7A75;" d="M197.76,87.403v56.788c0,1.264,0.723,2.417,1.861,2.968c0.456,0.221,0.948,0.33,1.437,0.33
		c0.729,0,1.451-0.242,2.045-0.71l20.196-15.961l20.19,15.958c0.99,0.783,2.345,0.931,3.48,0.381
		c1.139-0.551,1.861-1.704,1.861-2.968V87.403H197.76z"/>
	<path style="fill:#7C7A75;" d="M245.533,199.08h-44.475c-1.82,0-3.298,1.476-3.298,3.298v24.367h51.071v-24.367
		C248.831,200.556,247.356,199.08,245.533,199.08z"/>
	<circle style="fill:#7C7A75;" cx="420.702" cy="438.508" r="40.101"/>
	<circle style="fill:#7C7A75;" cx="166.465" cy="438.508" r="40.103"/>
</g>
<path style="fill:#299956;" d="M148.347,354.557v-116.28c0-6.368,5.163-11.531,11.531-11.531h-21.984
	c-6.368,0-11.531,5.163-11.531,11.531v116.28c0,6.37,5.163,11.531,11.531,11.531h21.984
	C153.51,366.088,148.347,360.927,148.347,354.557z"/>
<path style="fill:#EF9A1D;" d="M148.347,215.214V98.934c0-6.368,5.163-11.531,11.531-11.531h-21.984
	c-6.368,0-11.531,5.163-11.531,11.531v116.28c0,6.37,5.163,11.531,11.531,11.531h21.984
	C153.51,226.745,148.347,221.584,148.347,215.214z"/>
<g>
	<path style="fill:#6B6861;" d="M402.581,438.508c0-18.335,12.308-33.784,29.109-38.565c-3.495-0.994-7.179-1.538-10.992-1.538
		c-22.149,0-40.101,17.955-40.101,40.103c0,22.147,17.952,40.101,40.101,40.101c3.813,0,7.497-0.543,10.992-1.538
		C414.89,472.292,402.581,456.842,402.581,438.508z"/>
	<path style="fill:#6B6861;" d="M148.347,438.508c0-18.335,12.309-33.784,29.11-38.565c-3.494-0.994-7.179-1.538-10.993-1.538
		c-22.147,0-40.101,17.955-40.101,40.103c0,22.147,17.955,40.101,40.101,40.101c3.814,0,7.499-0.543,10.993-1.538
		C160.656,472.292,148.347,456.842,148.347,438.508z"/>
</g>
<g>
	<circle style="fill:#CCC3A8;" cx="420.702" cy="438.508" r="14.843"/>
	<circle style="fill:#CCC3A8;" cx="166.465" cy="438.508" r="14.843"/>
	<path style="fill:#CCC3A8;" d="M497.61,366.088h-86.495H84.722H70.995v32.317h13.727h171.103h36.547h30.334h174.903
		c7.947,0,14.391-6.442,14.391-14.39v-3.537C512,372.53,505.557,366.088,497.61,366.088z"/>
</g>
<path style="fill:#7C7A75;" d="M70.995,406.649c-4.553,0-8.244-3.69-8.244-8.244V91.594L3.387,48.296
	c-3.678-2.684-4.486-7.841-1.803-11.52s7.841-4.486,11.519-1.803l62.751,45.769c2.128,1.552,3.386,4.028,3.386,6.661v311.002
	C79.239,402.959,75.549,406.649,70.995,406.649z"/>
<g>
	<path style="fill:#72706A;" d="M245.533,338.423h-44.475c-1.82,0-3.298,1.476-3.298,3.298v24.367h51.071V341.72
		C248.831,339.899,247.356,338.423,245.533,338.423z"/>
	<path style="fill:#72706A;" d="M197.76,226.745v56.789c0,1.264,0.723,2.417,1.861,2.968c0.456,0.221,0.948,0.33,1.437,0.33
		c0.729,0,1.451-0.242,2.046-0.711l20.194-15.961l20.191,15.961c0.99,0.783,2.345,0.931,3.48,0.381
		c1.139-0.551,1.861-1.704,1.861-2.968v-56.789H197.76z"/>
</g>
<rect x="79.242" y="366.092" style="fill:#C9B585;" width="21.984" height="32.317"/>
<g>
	<path style="fill:#605E5A;" d="M223.298,338.423h-22.239c-1.82,0-3.298,1.476-3.298,3.298v24.367h25.537V338.423z"/>
	<path style="fill:#605E5A;" d="M197.76,226.745v56.789c0,1.264,0.723,2.417,1.861,2.968c0.456,0.221,0.948,0.33,1.437,0.33
		c0.729,0,1.451-0.242,2.046-0.711l20.194-15.961v-43.414H197.76z"/>
</g>
<g>
	<path style="fill:#6D6C69;" d="M223.298,199.08h-22.239c-1.82,0-3.298,1.476-3.298,3.298v24.367h25.537V199.08z"/>
	<path style="fill:#6D6C69;" d="M223.298,87.403h-25.537v56.788c0,1.264,0.723,2.417,1.861,2.968c0.456,0.221,0.948,0.33,1.437,0.33
		c0.729,0,1.451-0.242,2.045-0.71l20.195-15.959V87.403z"/>
</g>
<g>
</g>
<g>
</g>
<g>
</g>
<g>
</g>
<g>
</g>
<g>
</g>
<g>
</g>
<g>
</g>
<g>
</g>
<g>
</g>
<g>
</g>
<g>
</g>
<g>
</g>
<g>
</g>
<g>
</g>
</svg>
