<?xml version="1.0" encoding="iso-8859-1"?>
<!-- Generator: Adobe Illustrator 19.0.0, SVG Export Plug-In . SVG Version: 6.00 Build 0)  -->
<svg version="1.1" id="Capa_1" xmlns="http://www.w3.org/2000/svg" xmlns:xlink="http://www.w3.org/1999/xlink" x="0px" y="0px"
	 viewBox="0 0 426.667 426.667" style="enable-background:new 0 0 426.667 426.667;" xml:space="preserve">
<path style="fill:#44C4A1;" d="M376.733,231.261v-7.042h11.026c5.578,0,10.1-4.522,10.1-10.1v-1.886c0-5.578-4.522-10.1-10.1-10.1
	h-8.145l-48.747-94.584c-9.574-18.576-28.722-30.249-49.619-30.249H94.419c-44.901,0-81.301,36.4-81.301,81.301v132.672
	c0,10.52,8.528,19.048,19.048,19.048h283.112c0.32-13.124,13.585-33.39,21.445-42.251c35.32-39.82,79.701-5.121,79.701-5.121h10.243
	C419.945,232.222,376.733,231.261,376.733,231.261z"/>
<path style="fill:#31978C;" d="M376.733,231.261v-7.042h11.026c5.578,0,10.1-4.522,10.1-10.1v-1.886c0-5.578-4.522-10.1-10.1-10.1
	h-8.145H13.118v89.141c0,10.52,8.528,19.048,19.048,19.048h283.112c0.32-13.124,13.585-33.39,21.445-42.251
	c35.32-39.82,79.701-5.121,79.701-5.121h10.243C419.945,232.222,376.733,231.261,376.733,231.261z"/>
<path style="fill:#EBF0F3;" d="M150.754,100.347h53.774c8.485,0,15.364,6.879,15.364,15.364v171.565h-60.816v-12.905
	c0-17.888-5.257-35.383-15.118-50.308l-8.568-12.967v-95.385C135.39,107.226,142.269,100.347,150.754,100.347z"/>
<g>
	<path style="fill:#FFFFFF;" d="M323.966,101.117l-1.644,0.513c-5.829,1.82-9.353,7.737-8.174,13.729l10.144,51.566
		c1.208,6.139,6.941,10.31,13.154,9.57l23.238-2.768L323.966,101.117z"/>
	<rect x="235.563" y="104.828" style="fill:#FFFFFF;" width="63.377" height="182.447"/>
</g>
<rect x="235.563" y="217.178" style="fill:#D15241;" width="44.173" height="70.097"/>
<path style="fill:#3A556A;" d="M273.768,200.853h-19.941v-35.601c0-3.142-2.547-5.689-5.689-5.689h-6.867
	c-3.142,0-5.689,2.547-5.689,5.689v41.588v4.353v0.297c0,3.142,2.547,5.689,5.689,5.689h0.295h0.001h32.201
	c3.306,0,5.986-2.68,5.986-5.986v-4.353C279.754,203.534,277.074,200.853,273.768,200.853z"/>
<rect x="235.563" y="138.458" style="fill:#E56353;" width="22.084" height="33.583"/>
<g transform="matrix(0.14374 -0.98962 0.98962 0.14374 3.847 166.15)">
	
		<ellipse transform="matrix(-0.1437 -0.9896 0.9896 -0.1437 -476.0777 362.1885)" style="fill:#2F4859;" cx="-81.348" cy="387.056" rx="47.061" ry="47.061"/>
	
		<ellipse transform="matrix(-0.1437 -0.9896 0.9896 -0.1437 -476.0777 362.1885)" style="fill:#D5D6DB;" cx="-81.348" cy="387.056" rx="30.579" ry="30.579"/>
</g>
<ellipse style="fill:#3A556A;" cx="375.192" cy="302.289" rx="13.188" ry="13.188"/>
<path style="fill:#31978C;" d="M375.029,291.693l-40.439-39.217l-10.448,10.771l40.44,39.219c2.975,2.885,7.724,2.812,10.609-0.162
	C378.076,299.33,378.004,294.579,375.029,291.693z"/>
<g transform="matrix(0.14374 -0.98962 0.98962 0.14374 -53.725 99.61)">
	
		<ellipse transform="matrix(-0.1437 -0.9896 0.9896 -0.1437 -373.9984 15.7953)" style="fill:#2F4859;" cx="-180.166" cy="169.697" rx="47.061" ry="47.061"/>
	
		<ellipse transform="matrix(-0.1437 -0.9896 0.9896 -0.1437 -373.9984 15.7953)" style="fill:#D5D6DB;" cx="-180.166" cy="169.697" rx="30.579" ry="30.579"/>
	
		<ellipse transform="matrix(-0.1437 -0.9896 0.9896 -0.1437 -373.9984 15.7953)" style="fill:#3A556A;" cx="-180.166" cy="169.697" rx="13.188" ry="13.188"/>
</g>
<path style="fill:#DC8744;" d="M379.338,224.381h12.67c3.098,0,5.61-2.511,5.61-5.61v-11.045c0-3.098-2.511-5.61-5.61-5.61h-12.67
	V224.381z"/>
<rect y="220.54" style="fill:#F6C358;" width="13.116" height="20.646"/>
<rect y="193.796" style="fill:#CE412D;" width="13.116" height="20.646"/>
<path style="fill:#FCD462;" d="M390.622,202.116h-2.72v22.265h2.72c4.131,0,7.479-3.349,7.479-7.479v-7.306
	C398.101,205.465,394.753,202.116,390.622,202.116z"/>
<g>
</g>
<g>
</g>
<g>
</g>
<g>
</g>
<g>
</g>
<g>
</g>
<g>
</g>
<g>
</g>
<g>
</g>
<g>
</g>
<g>
</g>
<g>
</g>
<g>
</g>
<g>
</g>
<g>
</g>
</svg>
