<?xml version="1.0" encoding="iso-8859-1"?>
<!-- Generator: Adobe Illustrator 19.0.0, SVG Export Plug-In . SVG Version: 6.00 Build 0)  -->
<svg version="1.1" id="Layer_1" xmlns="http://www.w3.org/2000/svg" xmlns:xlink="http://www.w3.org/1999/xlink" x="0px" y="0px"
	 viewBox="0 0 512 512" style="enable-background:new 0 0 512 512;" xml:space="preserve">
<path style="fill:#72563C;" d="M246.634,74.928V38.417c0-0.044-0.005-0.086-0.006-0.13l-13.996,2.075v34.565H246.634z"/>
<path style="fill:#E62937;" d="M470.204,236.176v-48.711c0-2.965-2.425-5.392-5.39-5.392H348.662c-2.964,0-5.39,2.426-5.39,5.392
	v48.711H470.204z"/>
<path style="fill:#FF5E97;" d="M361.395,236.176v-48.711c0-2.965-2.425-5.392-5.39-5.392H239.852c-2.964,0-5.39,2.426-5.39,5.392
	v48.711H361.395z"/>
<path style="opacity:0.1;enable-background:new    ;" d="M253.03,182.074h-13.177c-2.964,0-5.39,2.426-5.39,5.392v48.711h13.177
	v-48.711C247.64,184.5,250.065,182.074,253.03,182.074z"/>
<path style="fill:#009E2F;" d="M492.666,280.909c0,2.965-2.425,5.393-5.39,5.393H371.124c-2.964,0-5.39-2.426-5.39-5.393v-41.33
	c0-2.965,2.425-5.392,5.39-5.392h116.153c2.964,0,5.39,2.426,5.39,5.392v41.33H492.666z"/>
<path style="fill:#FFCB00;" d="M409.599,280.909c0,2.965-2.425,5.393-5.39,5.393H288.057c-2.964,0-5.39-2.426-5.39-5.393v-41.33
	c0-2.965,2.425-5.392,5.39-5.392H404.21c2.964,0,5.39,2.426,5.39,5.392L409.599,280.909L409.599,280.909z"/>
<path style="fill:#35D34F;" d="M294.132,280.909c0,2.965-2.425,5.393-5.39,5.393H172.589c-2.964,0-5.39-2.426-5.39-5.393v-41.33
	c0-2.965,2.425-5.392,5.39-5.392h116.153c2.964,0,5.39,2.426,5.39,5.392V280.909z"/>
<path style="opacity:0.1;enable-background:new    ;" d="M183.402,280.909v-41.33c0-2.965,2.425-5.392,5.39-5.392h-16.202
	c-2.964,0-5.39,2.426-5.39,5.392v41.33c0,2.965,2.425,5.393,5.39,5.393h16.202C185.827,286.301,183.402,283.875,183.402,280.909z"/>
<path style="fill:#0052AC;" d="M305.21,326.946c0,2.965-2.425,5.393-5.39,5.393H183.667c-2.964,0-5.39-2.426-5.39-5.393v-41.33
	c0-2.965,2.425-5.393,5.39-5.393H299.82c2.963,0,5.39,2.426,5.39,5.393L305.21,326.946L305.21,326.946z"/>
<rect x="84.156" y="61.91" style="fill:#FFCB00;" width="26.133" height="132.504"/>
<path style="fill:#00A9FF;" d="M178.261,326.946c0,2.965-2.425,5.393-5.39,5.393H46.14c-2.964,0-5.39-2.426-5.39-5.393v-41.33
	c0-2.965,2.425-5.393,5.39-5.393h126.731c2.964,0,5.39,2.426,5.39,5.393V326.946z"/>
<path style="opacity:0.1;enable-background:new    ;" d="M201.585,326.946v-41.33c0-2.965,2.425-5.393,5.39-5.393h-23.309
	c-2.964,0-5.39,2.426-5.39,5.393v41.33c0,2.965,2.425,5.393,5.39,5.393h23.309C204.012,332.338,201.585,329.912,201.585,326.946z"/>
<rect x="84.156" y="188.447" style="fill:#BFBFBF;" width="26.133" height="78.785"/>
<g>
	<rect x="84.156" y="165.355" style="fill:#737373;" width="26.133" height="15.673"/>
	<rect x="84.156" y="136.098" style="fill:#737373;" width="26.133" height="15.673"/>
	<rect x="84.156" y="105.19" style="fill:#737373;" width="26.133" height="15.673"/>
	<rect x="84.156" y="74.449" style="fill:#737373;" width="26.133" height="15.673"/>
</g>
<path style="fill:#FFCB00;" d="M133.558,327.774c0,2.966-2.425,5.393-5.39,5.393H66.279c-2.964,0-5.39-2.426-5.39-5.393v-60.785
	c0-2.966,2.425-5.393,5.39-5.393h61.89c2.964,0,5.39,2.426,5.39,5.393v60.785H133.558z"/>
<path style="opacity:0.1;enable-background:new    ;" d="M84.164,327.774v-60.785c0-2.966,2.425-5.393,5.39-5.393H66.279
	c-2.964,0-5.39,2.426-5.39,5.393v60.785c0,2.966,2.425,5.393,5.39,5.393h23.274C86.589,333.168,84.164,330.741,84.164,327.774z"/>
<path style="fill:#72563C;" d="M232.854,129.829l6.778-11.75l6.778,11.75h16.166l-16.879-29.259
	c-1.251-2.167-3.563-3.502-6.065-3.502c-2.503,0-4.814,1.335-6.065,3.502l-16.88,29.258h16.167V129.829z"/>
<path style="fill:#35D34F;" d="M273.766,186.294c0,3.659-2.993,6.654-6.65,6.654h-54.971c-3.658,0-6.65-2.995-6.65-6.654v-50.998
	c0-3.659,2.993-6.654,6.65-6.654h54.971c3.657,0,6.65,2.995,6.65,6.654L273.766,186.294L273.766,186.294z"/>
<path style="opacity:0.1;enable-background:new    ;" d="M221.518,186.294v-50.998c0-3.659,2.993-6.654,6.65-6.654h-16.022
	c-3.658,0-6.65,2.995-6.65,6.654v50.998c0,3.659,2.993,6.654,6.65,6.654h16.022C224.51,192.948,221.518,189.953,221.518,186.294z"/>
<circle style="fill:#FED15B;" cx="239.636" cy="88.054" r="17.236"/>
<path style="fill:#BFBFBF;" d="M508.397,276.254H302.55c-2.983,0-6.45,2.217-7.702,4.928l-17.755,38.399
	c-1.252,2.709-4.719,4.927-7.702,4.927H3.924c-2.983,0-4.621,2.307-3.639,5.126l34.623,99.451h6.046
	c8.521-3.687,16.021-9.289,21.937-16.287c5.915,6.998,13.416,12.599,21.937,16.287h47.258c8.521-3.687,16.021-9.289,21.937-16.287
	c5.915,6.998,13.415,12.599,21.937,16.287h47.258c8.521-3.687,16.021-9.289,21.937-16.287c5.915,6.998,13.415,12.599,21.937,16.287
	h47.258c8.521-3.687,16.021-9.289,21.937-16.287c5.915,6.998,13.415,12.599,21.937,16.287h47.258
	c8.521-3.687,16.022-9.289,21.937-16.287c4.718,5.582,10.444,10.28,16.89,13.826l67.242-145.442
	C512.796,278.472,511.38,276.254,508.397,276.254z"/>
<path style="fill:#0052AC;" d="M40.952,429.085c8.521-3.687,16.021-9.289,21.937-16.287c5.915,6.998,13.416,12.599,21.937,16.287
	h47.258c8.521-3.687,16.021-9.289,21.937-16.287c5.915,6.998,13.415,12.599,21.937,16.287h47.258
	c8.521-3.687,16.021-9.289,21.937-16.287c5.915,6.998,13.415,12.599,21.937,16.287h47.258c8.521-3.687,16.021-9.289,21.937-16.287
	c5.915,6.998,13.415,12.599,21.937,16.287h47.258c8.521-3.687,16.022-9.289,21.937-16.287c4.718,5.582,10.444,10.28,16.89,13.826
	l16.963-36.689H21.277l13.63,39.15L40.952,429.085L40.952,429.085z"/>
<path style="opacity:0.1;enable-background:new    ;" d="M40.952,429.085c5.799-2.509,11.12-5.907,15.793-10.031l-31.131-89.42
	c-0.981-2.819,0.656-5.126,3.639-5.126H3.924c-2.983,0-4.621,2.307-3.639,5.126l34.623,99.451H40.952z"/>
<g>
	<ellipse style="fill:#FFFFFF;" cx="328.306" cy="318.819" rx="16.25" ry="16.262"/>
	<ellipse style="fill:#FFFFFF;" cx="383.069" cy="318.819" rx="16.249" ry="16.262"/>
</g>
<path style="opacity:0.1;enable-background:new    ;" d="M372.696,318.821c0-7.974,5.739-14.594,13.306-15.983
	c-0.951-0.179-1.929-0.28-2.933-0.28c-8.975,0-16.25,7.281-16.25,16.262s7.276,16.262,16.25,16.262c1.003,0,1.982-0.101,2.933-0.28
	C378.434,333.416,372.696,326.795,372.696,318.821z"/>
<ellipse style="fill:#FFFFFF;" cx="437.833" cy="318.819" rx="16.25" ry="16.262"/>
<path style="opacity:0.1;enable-background:new    ;" d="M427.459,318.821c0-7.974,5.739-14.594,13.306-15.983
	c-0.951-0.179-1.929-0.28-2.933-0.28c-8.975,0-16.25,7.281-16.25,16.262s7.276,16.262,16.25,16.262c1.004,0,1.982-0.101,2.933-0.28
	C433.197,333.416,427.459,326.795,427.459,318.821z"/>
<path style="opacity:0.1;enable-background:new    ;" d="M317.932,318.821c0-7.974,5.739-14.594,13.306-15.983
	c-0.951-0.179-1.929-0.28-2.933-0.28c-8.975,0-16.25,7.281-16.25,16.262s7.276,16.262,16.25,16.262c1.003,0,1.981-0.101,2.933-0.28
	C323.671,333.416,317.932,326.795,317.932,318.821z"/>
<path style="fill:#737373;" d="M125.328,29.518c-1.186,0-2.156,0.971-2.156,2.157v24.85c0,1.186,0.959,2.016,2.133,1.84
	l126.553-18.764c1.173-0.174,2.133-1.286,2.133-2.472v-5.453c0-1.187-0.97-2.157-2.156-2.157
	C251.834,29.518,125.328,29.518,125.328,29.518z"/>
<path style="fill:#BFBFBF;" d="M130.314,26.185c0-2.965-2.425-5.393-5.39-5.393H69.525c-2.964,0-5.39,2.426-5.39,5.393V62.15
	c0,2.966,2.425,5.393,5.39,5.393h55.399c2.964,0,5.39-2.426,5.39-5.393C130.314,62.15,130.314,26.185,130.314,26.185z"/>
<path style="opacity:0.1;enable-background:new    ;" d="M87.409,62.149V26.185c0-2.965,2.425-5.393,5.39-5.393H69.525
	c-2.964,0-5.39,2.426-5.39,5.393V62.15c0,2.966,2.425,5.393,5.39,5.393h23.274C89.836,67.542,87.409,65.115,87.409,62.149z"/>
<g>
	<path style="fill:#76D8FF;" d="M381.846,491.208c-16.994,0-33.184-6.373-45.565-17.724c-12.381,11.351-28.571,17.724-45.565,17.724
		c-16.819,0-32.934-6.235-45.379-17.555c-3.202-2.912-3.437-7.869-0.523-11.071s7.869-3.437,11.071-0.523
		c9.552,8.689,21.922,13.475,34.832,13.475c15.269,0,29.695-6.706,39.581-18.401c1.489-1.762,3.678-2.777,5.985-2.777
		c2.307,0,4.496,1.016,5.985,2.777c9.885,11.693,24.312,18.401,39.581,18.401c12.469,0,24.52-4.502,33.933-12.677
		c3.267-2.839,8.217-2.489,11.055,0.778c2.838,3.267,2.489,8.218-0.778,11.056C413.792,485.342,398.091,491.208,381.846,491.208z"/>
	<path style="fill:#76D8FF;" d="M108.455,491.208c-19.892,0-38.681-8.732-51.55-23.955c-2.794-3.305-2.38-8.251,0.926-11.044
		c3.305-2.795,8.251-2.379,11.044,0.926c9.886,11.693,24.312,18.401,39.581,18.401s29.696-6.706,39.581-18.401
		c2.794-3.305,7.74-3.72,11.044-0.926c3.306,2.794,3.72,7.739,0.926,11.044C147.135,482.477,128.345,491.208,108.455,491.208z"/>
</g>
<path style="fill:#ABEBFF;" d="M472.977,441.815c-16.995,0-33.185-6.373-45.565-17.725c-12.381,11.352-28.57,17.725-45.565,17.725
	s-33.185-6.373-45.565-17.725c-12.381,11.352-28.57,17.725-45.565,17.725s-33.185-6.373-45.565-17.725
	c-12.381,11.352-28.57,17.725-45.565,17.725s-33.185-6.373-45.565-17.725c-12.381,11.352-28.57,17.725-45.565,17.725
	s-33.185-6.373-45.565-17.725c-12.381,11.352-28.57,17.725-45.565,17.725c-4.328,0-7.837-3.509-7.837-7.837s3.509-7.837,7.837-7.837
	c15.269,0,29.696-6.707,39.58-18.401c1.489-1.762,3.679-2.778,5.985-2.778c2.306,0,4.496,1.017,5.985,2.778
	c9.884,11.693,24.311,18.401,39.58,18.401s29.696-6.707,39.58-18.401c1.489-1.762,3.678-2.778,5.985-2.778
	c2.307,0,4.496,1.017,5.985,2.778c9.884,11.693,24.311,18.401,39.58,18.401s29.696-6.707,39.58-18.401
	c1.489-1.762,3.678-2.778,5.985-2.778c2.307,0,4.496,1.017,5.985,2.778c9.885,11.693,24.311,18.401,39.58,18.401
	s29.696-6.707,39.58-18.401c1.489-1.762,3.679-2.778,5.985-2.778c2.307,0,4.496,1.017,5.985,2.778
	c9.884,11.693,24.311,18.401,39.58,18.401c15.269,0,29.696-6.707,39.58-18.401c1.489-1.762,3.679-2.778,5.985-2.778
	c2.307,0,4.496,1.017,5.985,2.778c9.885,11.693,24.311,18.401,39.58,18.401c4.328,0,7.837,3.509,7.837,7.837
	S477.305,441.815,472.977,441.815z"/>
<g>
	<circle style="fill:#737373;" cx="61.126" cy="372.767" r="7.837"/>
	<circle style="fill:#737373;" cx="112.326" cy="372.767" r="7.837"/>
	<circle style="fill:#737373;" cx="163.526" cy="372.767" r="7.837"/>
	<circle style="fill:#737373;" cx="214.726" cy="372.767" r="7.837"/>
	<circle style="fill:#737373;" cx="265.926" cy="372.767" r="7.837"/>
	<circle style="fill:#737373;" cx="317.126" cy="372.767" r="7.837"/>
	<circle style="fill:#737373;" cx="368.326" cy="372.767" r="7.837"/>
	<circle style="fill:#737373;" cx="419.526" cy="372.767" r="7.837"/>
</g>
<g>
	<path style="fill:#FFFFFF;" d="M443.036,213.943c0,1.724-1.411,3.135-3.135,3.135h-47.02c-1.724,0-3.135-1.411-3.135-3.135v-9.404
		c0-1.724,1.411-3.135,3.135-3.135h47.02c1.724,0,3.135,1.411,3.135,3.135V213.943z"/>
	<path style="fill:#FFFFFF;" d="M257.044,263.576c0,1.724-1.411,3.135-3.135,3.135h-47.02c-1.724,0-3.135-1.411-3.135-3.135v-9.404
		c0-1.724,1.411-3.135,3.135-3.135h47.02c1.724,0,3.135,1.411,3.135,3.135V263.576z"/>
	<path style="fill:#FFFFFF;" d="M376.163,263.576c0,1.724-1.411,3.135-3.135,3.135h-47.02c-1.724,0-3.135-1.411-3.135-3.135v-9.404
		c0-1.724,1.411-3.135,3.135-3.135h47.02c1.724,0,3.135,1.411,3.135,3.135V263.576z"/>
	<path style="fill:#FFFFFF;" d="M281.077,213.943c0,1.724-1.411,3.135-3.135,3.135h-9.404c-1.724,0-3.135-1.411-3.135-3.135v-9.404
		c0-1.724,1.411-3.135,3.135-3.135h9.404c1.724,0,3.135,1.411,3.135,3.135V213.943z"/>
	<path style="fill:#FFFFFF;" d="M336.457,213.943c0,1.724-1.411,3.135-3.135,3.135h-37.616c-1.724,0-3.135-1.411-3.135-3.135v-9.404
		c0-1.724,1.411-3.135,3.135-3.135h37.616c1.724,0,3.135,1.411,3.135,3.135V213.943z"/>
</g>
<g>
</g>
<g>
</g>
<g>
</g>
<g>
</g>
<g>
</g>
<g>
</g>
<g>
</g>
<g>
</g>
<g>
</g>
<g>
</g>
<g>
</g>
<g>
</g>
<g>
</g>
<g>
</g>
<g>
</g>
</svg>
